<svg xmlns="http://www.w3.org/2000/svg" viewBox="0 0 138 116.75"><defs><style>.cls-1,.cls-5{opacity:0.7;}.cls-2,.cls-3,.cls-4,.cls-5,.cls-6{fill:#f2a444;}.cls-3,.cls-7{opacity:0.9;}.cls-4{opacity:0.6;}.cls-6,.cls-8{opacity:0.8;}.cls-7{fill:#592b02;}.cls-8{fill:#260101;}</style></defs><g id="Calque_2" data-name="Calque 2"><g id="Calque_1-2" data-name="Calque 1"><path d="M32.49,110.7s0,0,0,0,0,.14-.06.15l-.34.07c-.11,0-.13.1-.14.21,0,.29,0,2.14,0,2.51s0,2.15,0,2.62c0,.1,0,.13.11.15l.38.11s0,.09,0,.12,0,0,0,0l-1.08,0-1.28,0s0,0,0,0,0-.11.05-.12l.52-.12c.07,0,.08-.08.08-.17,0-.63-.18-3.18-.22-4.1,0-.11,0-.23,0-.35H30.5l-.12.33c-.48,1.18-1.35,3.38-1.77,4.32-.06.13-.1.16-.35.18H28s-.07,0-.08,0c-.39-.88-1.24-2.85-1.65-3.92,0-.08-.11-.23-.14-.33H26c0,.11,0,.25,0,.34-.11.95-.35,3.13-.39,3.64,0,.09,0,.13.08.14l.58.09s.06.07.06.12,0,0,0,0l-.84,0-.72,0s0,0,0,0,0-.12.06-.12l.38-.09c.07,0,.11,0,.11-.14,0-.46.07-2.17.08-2.57s.08-2.38.08-2.63,0-.14-.13-.17l-.4-.08s-.05-.09-.05-.14,0,0,0,0h2a.07.07,0,0,1,.07,0c.38.93,1.24,3.48,1.58,4.36a3.09,3.09,0,0,0,.13.32h.06c0-.12.09-.27.12-.34.37-.93,1.13-3.15,1.53-4.34a.06.06,0,0,1,.06,0Z"/><path d="M36.64,110.7s0,0,0,0,0,.13,0,.14l-.38.07c-.06,0-.09,0-.09.13,0,.62-.08,2.22-.09,2.67s0,2.47,0,2.6,0,.09.11.11l.39.09s.06.08.06.12,0,0,0,0l-1.23,0-1.16,0s0,0,0,0,0-.12,0-.13l.44-.09c.07,0,.09,0,.09-.12,0-.39,0-2,0-2.69s0-2.22,0-2.5c0-.11,0-.17-.1-.19l-.37-.07s0-.07,0-.15,0,0,0,0Z"/><path d="M38.19,114.09a3.41,3.41,0,0,1,1.15-2.68,3.62,3.62,0,0,1,2.31-.78,2.37,2.37,0,0,1,1.07.18s.05,0,.05.1l.11,1.35s-.09.11-.14.11,0,0,0,0c-.18-.4-.39-.88-.55-1.2A.49.49,0,0,0,42,111a.5.5,0,0,0-.37-.13,1.6,1.6,0,0,0-1.14.59,3.89,3.89,0,0,0-.77,2.56c0,1.67.92,2.35,1.8,2.35a3,3,0,0,0,.56-.06,5.76,5.76,0,0,0,.85-.26s0,0,0,.12a.09.09,0,0,1,0,.07,7.3,7.3,0,0,1-1.09.46,4.08,4.08,0,0,1-.83.1c-1.54,0-2.83-.7-2.83-2.65Z"/><path d="M49.32,112.25a1.83,1.83,0,0,1-1.17,1.52,20.72,20.72,0,0,1,1.43,2.53.2.2,0,0,0,.14.13l.39.11a.14.14,0,0,1,.07.13s0,0,0,0c-.25,0-.54,0-1.09,0l-1.2,0s0,0,0,0,0-.11.06-.12l.39-.08c.09,0,.13-.06.08-.14a22,22,0,0,0-1.59-2.11.14.14,0,0,0-.1,0h-.32c0,.41,0,1.75,0,2.14,0,.09,0,.12.1.14l.42.11a.14.14,0,0,1,.06.12s0,0,0,0l-1.18,0-1.15,0s0,0,0,0,0-.12,0-.12l.42-.09a.12.12,0,0,0,.1-.13c0-.38,0-2.13,0-2.59s0-2.22,0-2.58c0-.11,0-.16-.09-.17l-.38,0s-.06-.07-.06-.13,0,0,0,0c.48,0,1.41-.12,2.35-.12,1.72,0,2.47.59,2.47,1.59ZM46.59,114c.71,0,1.26-.71,1.26-1.68s-.45-1.48-1.11-1.48c-.2,0-.27,0-.27.15,0,.73-.12,2.68-.12,2.86s0,.15.23.15Z"/><path d="M54,116.75a2.51,2.51,0,0,1-2.73-2.8,3,3,0,0,1,3.07-3.32A2.52,2.52,0,0,1,57,113.42c0,2-1,3.33-3,3.33Zm.19-.18c.9,0,1.24-1.18,1.24-3,0-1.41-.44-2.78-1.3-2.78s-1.34,1.15-1.34,3c0,1.42.52,2.73,1.39,2.73Z"/><path d="M61.89,113.48l.15,0A1.62,1.62,0,0,1,63.57,115c0,1.21-1.23,1.67-3.13,1.67l-.9,0-1,0s0,0,0,0,0-.11.06-.12l.43-.09a.14.14,0,0,0,.11-.15c0-.39,0-2.2,0-2.61s0-2.25,0-2.56c0-.11,0-.15-.1-.16l-.44,0c-.05,0-.07-.09-.07-.14s0,0,0,0a18.8,18.8,0,0,1,2.27-.13c1.69,0,2.48.47,2.48,1.38a1.57,1.57,0,0,1-1.2,1.35l-.16,0Zm.24,1.62a1.47,1.47,0,0,0-1.51-1.39.47.47,0,0,0-.22,0c0,.37-.06,2.42-.06,2.62s.13.14.26.14a1.35,1.35,0,0,0,1.53-1.39Zm-1.41-4.26c-.14,0-.21.07-.21.16,0,.7-.1,2.26-.1,2.49a.51.51,0,0,0,.17,0,1.26,1.26,0,0,0,1.26-1.34c0-.86-.5-1.34-1.11-1.34Z"/><path d="M70,112.25a1.83,1.83,0,0,1-1.17,1.52,22.13,22.13,0,0,1,1.42,2.53.24.24,0,0,0,.15.13l.39.11a.15.15,0,0,1,.06.13s0,0,0,0c-.25,0-.54,0-1.08,0l-1.2,0s0,0,0,0,0-.11.06-.12l.38-.08c.09,0,.14-.06.08-.14a20.45,20.45,0,0,0-1.59-2.11.14.14,0,0,0-.1,0H67c0,.41,0,1.75,0,2.14,0,.09,0,.12.09.14l.43.11a.14.14,0,0,1,.06.12s0,0,0,0l-1.18,0-1.16,0s0,0,0,0,0-.12,0-.12l.43-.09a.11.11,0,0,0,.09-.13c0-.38,0-2.13,0-2.59s0-2.22,0-2.58c0-.11,0-.16-.09-.17l-.39,0s-.06-.07-.06-.13,0,0,0,0c.49,0,1.42-.12,2.36-.12,1.71,0,2.47.59,2.47,1.59ZM67.27,114c.71,0,1.26-.71,1.26-1.68s-.46-1.48-1.12-1.48c-.19,0-.27,0-.27.15,0,.73-.12,2.68-.12,2.86s0,.15.24.15Z"/><path d="M74.74,110.68l.82,0a.1.1,0,0,1,.07,0c.31,1.05,1.31,4.39,1.7,5.59a.22.22,0,0,0,.13.12l.36.1a.15.15,0,0,1,0,.12s0,0,0,0l-1.15,0-1.33,0s0,0,0,0,0-.12.06-.13l.53-.09c.07,0,.08-.08.06-.15-.1-.32-.46-1.25-.57-1.58-.44,0-1.56,0-2.06.07,0,0-.06,0-.07.08-.06.28-.24,1.07-.3,1.42,0,.11,0,.14.09.16l.51.1s.06.07.06.12,0,0,0,0l-1,0-.81,0s0,0,0,0,0-.12,0-.13l.24-.08c.08,0,.12-.06.17-.17.48-1.17,1.49-4.14,1.92-5.32.09-.24.21-.29.6-.29Zm-.52.77a3.43,3.43,0,0,0-.1.33c-.24.8-.55,1.93-.74,2.6a.06.06,0,0,0,.05.07c.45,0,1.49.09,1.9.08-.16-.46-.67-1.87-.93-2.74,0-.09-.06-.2-.12-.34Z"/><path d="M83.38,114.83c0,1.13-1.06,1.92-2.94,1.92a4.35,4.35,0,0,1-1.07-.1.12.12,0,0,1-.09-.1l-.14-1.32s.09-.1.12-.1,0,0,0,0c.19.33.36.68.54,1a.51.51,0,0,0,.24.22,1.17,1.17,0,0,0,.66.16c.83,0,1.46-.41,1.46-1s-.42-.93-1.41-1.31-1.55-.86-1.55-1.6c0-1,1.21-2,2.81-2a2.56,2.56,0,0,1,1,.13s.07,0,.07.09l.12,1.26s-.09.09-.13.09,0,0,0,0c-.18-.35-.36-.7-.56-1a.37.37,0,0,0-.18-.17,1,1,0,0,0-.53-.12,1.18,1.18,0,0,0-1.28,1.06c0,.52.37.81,1.2,1.22s1.7.85,1.7,1.69Z"/><path d="M89.27,114.83c0,1.13-1.07,1.92-3,1.92a4.26,4.26,0,0,1-1.06-.1.12.12,0,0,1-.09-.1L85,115.23s.1-.1.13-.1,0,0,0,0c.18.33.36.68.54,1a.54.54,0,0,0,.23.22,1.2,1.2,0,0,0,.66.16c.84,0,1.47-.41,1.47-1s-.42-.93-1.42-1.31-1.54-.86-1.54-1.6c0-1,1.2-2,2.81-2a2.56,2.56,0,0,1,1,.13s.07,0,.07.09l.11,1.26s-.08.09-.12.09,0,0,0,0c-.18-.35-.37-.7-.56-1a.36.36,0,0,0-.19-.17,1,1,0,0,0-.52-.12,1.17,1.17,0,0,0-1.28,1.06c0,.52.37.81,1.19,1.22s1.71.85,1.71,1.69Z"/><path d="M95.24,116.67a.07.07,0,0,1-.07,0l-.78,0-2.33,0-1.18,0s0,0,0,0,0-.1.05-.11l.45-.1c.06,0,.1,0,.1-.15,0-.29,0-2.26,0-2.7s0-2.19,0-2.51c0-.12,0-.15-.09-.17l-.4-.08s-.05-.07-.05-.14,0,0,0,0h1.2c2.16,0,2.91,0,3,0a.05.05,0,0,1,.06.06l.06,1.27s-.08.08-.11.08,0,0,0,0c-.14-.3-.27-.59-.42-.9a.29.29,0,0,0-.24-.14,13.26,13.26,0,0,0-1.42-.15c-.09,0-.1,0-.1.11-.05.59-.11,2.13-.1,2.45l2,.06a0,0,0,0,1,0,0c0,.06,0,.17-.07.17-.38,0-1.34.09-1.84.14-.09,0-.12,0-.12.1,0,.32-.05,2.16-.05,2.44,0,.1,0,.12.11.12a9.17,9.17,0,0,0,1.77-.16.29.29,0,0,0,.2-.15c.2-.26.37-.53.54-.8,0,0,0,0,0,0s.11.07.1.11Z"/><path d="M101.76,112.25a1.83,1.83,0,0,1-1.17,1.52A22.13,22.13,0,0,1,102,116.3a.24.24,0,0,0,.15.13l.38.11a.14.14,0,0,1,.07.13s0,0,0,0c-.25,0-.54,0-1.08,0l-1.2,0s0,0,0,0,0-.11,0-.12l.39-.08c.09,0,.14-.06.08-.14a22,22,0,0,0-1.59-2.11.14.14,0,0,0-.1,0h-.32c0,.41,0,1.75,0,2.14,0,.09,0,.12.1.14l.43.11a.14.14,0,0,1,.06.12s0,0,0,0l-1.19,0-1.15,0s0,0,0,0,0-.12,0-.12l.43-.09a.11.11,0,0,0,.09-.13c0-.38,0-2.13,0-2.59s0-2.22,0-2.58c0-.11,0-.16-.09-.17l-.39,0s-.06-.07-.06-.13,0,0,0,0c.49,0,1.42-.12,2.36-.12,1.71,0,2.47.59,2.47,1.59ZM99,114c.7,0,1.26-.71,1.26-1.68s-.46-1.48-1.12-1.48c-.19,0-.27,0-.27.15-.05.73-.12,2.68-.12,2.86s0,.15.24.15Z"/><path d="M106.24,110.7s0,0,0,0,0,.13-.05.14l-.38.07c-.06,0-.09,0-.09.13,0,.62-.08,2.22-.09,2.67s0,2.47,0,2.6,0,.09.11.11l.39.09s.06.08.06.12,0,0,0,0l-1.23,0-1.16,0s0,0,0,0,0-.12,0-.13l.45-.09c.06,0,.08,0,.08-.12,0-.39,0-2,0-2.69s0-2.22,0-2.5c0-.11,0-.17-.1-.19l-.37-.07s-.05-.07-.05-.15,0,0,0,0Z"/><path d="M112.17,116.67a.08.08,0,0,1-.08,0l-.78,0-2.32,0-1.19,0s0,0,0,0,0-.1,0-.11l.45-.1c.07,0,.1,0,.1-.15,0-.29,0-2.26,0-2.7s0-2.19-.05-2.51c0-.12,0-.15-.1-.17l-.4-.08s0-.07,0-.14,0,0,0,0H109c2.17,0,2.91,0,3,0a.05.05,0,0,1,.06.06l.06,1.27s-.08.08-.11.08,0,0,0,0c-.14-.3-.27-.59-.42-.9a.29.29,0,0,0-.24-.14,13.26,13.26,0,0,0-1.42-.15c-.09,0-.1,0-.1.11,0,.59-.11,2.13-.1,2.45l2,.06s0,0,0,0,0,.17-.08.17c-.38,0-1.34.09-1.84.14-.09,0-.12,0-.12.1,0,.32,0,2.16,0,2.44,0,.1,0,.12.11.12a9.17,9.17,0,0,0,1.77-.16.34.34,0,0,0,.21-.15c.19-.26.37-.53.53-.8,0,0,0,0,0,0s.12.07.11.11Z"/><path d="M1.58,97.14Q1.48,90.62,1.35,86c-.09-3.11-.16-5.72-.23-7.84S1,74.31.89,73.06s-.15-2.25-.18-3S.64,68.76.6,68.44s0-.65,0-1c0-.59.17-.95.52-1.11a3.19,3.19,0,0,1,1.28-.23,2.4,2.4,0,0,1,1.36.33c.33.23.49.8.49,1.73l1,27.65.51-.1a10.55,10.55,0,0,0,1.08-.31L8.06,95a8.8,8.8,0,0,0,1.08-.44c.41-.17,1-.44,1.85-.82l2.77-1.28L17,91c1.14-.53,2.24-1,3.29-1.49s2-.89,2.77-1.28,1.41-.68,1.83-.85h.61a4.32,4.32,0,0,1,.62,0,.84.84,0,0,1,.51.26,1,1,0,0,1,.26.61,1.94,1.94,0,0,1-.18.88,7.31,7.31,0,0,1-.49.82,21.77,21.77,0,0,0-5.93,2q-2.91,1.5-5.76,3.09A61.31,61.31,0,0,1,8.8,97.92a15,15,0,0,1-5.93,1.23Q1.58,99.15,1.58,97.14Z"/><path d="M30.36,79.41c0-.27-.08-.71-.15-1.31s-.15-1.26-.23-2-.18-1.49-.28-2.31-.2-1.6-.29-2.34-.16-1.4-.23-2-.12-1-.15-1.28v-.36a2.43,2.43,0,0,1,.28-1.19,1,1,0,0,1,1-.51,1.48,1.48,0,0,1,1.29.67,4.64,4.64,0,0,1,.69,1.64,10.77,10.77,0,0,1,.28,2.16c0,.79,0,1.54,0,2.26s-.05,1.35-.1,1.88-.08.88-.08,1v1.13c0,.52,0,1.08,0,1.67s0,1.16-.06,1.67,0,.88,0,1.08A1.88,1.88,0,0,1,31,80.75,2.36,2.36,0,0,1,30.36,79.41Z"/><path d="M48,67.54a6.33,6.33,0,0,1-.57-1.34,5.27,5.27,0,0,1-.15-1.34,4.35,4.35,0,0,1,0-.51,1.05,1.05,0,0,1,.16-.46.74.74,0,0,1,.41-.31,1.15,1.15,0,0,1,.74.05,1.77,1.77,0,0,1,.62.39,3.67,3.67,0,0,1,.59.72,5.9,5.9,0,0,1,.46.84l.29.67c.78-.61,1.64-1.24,2.57-1.87a21.36,21.36,0,0,1,3-1.7,20.64,20.64,0,0,1,3.19-1.21A11.22,11.22,0,0,1,62.43,61a8.63,8.63,0,0,1,1.23.1,5.91,5.91,0,0,1,1.36.36,3.15,3.15,0,0,1,1.08.7,1.5,1.5,0,0,1,.44,1.1,5.49,5.49,0,0,1-.28,2.49,12.25,12.25,0,0,1-1.18,2.45,22.41,22.41,0,0,1-1.7,2.31c-.64.75-1.27,1.47-1.9,2.16s-1.22,1.32-1.75,1.9a11.52,11.52,0,0,0-1.21,1.54,15.51,15.51,0,0,1,4.55-2A19.13,19.13,0,0,1,68,73.45c.51,0,1.07,0,1.67.08a5.91,5.91,0,0,1,1.67.38,3.57,3.57,0,0,1,1.29.88,2.27,2.27,0,0,1,.51,1.59,6.87,6.87,0,0,1-1,2.85,39,39,0,0,1-2.47,4q-1.52,2.19-3.34,4.42c-1.22,1.49-2.39,2.85-3.52,4.06a35.79,35.79,0,0,1-3.06,3,4.1,4.1,0,0,1-1.93,1.16l-1.33-.62a7,7,0,0,1,1.28-2.31,32.15,32.15,0,0,1,2.44-2.78c.95-1,2-2,3-3s2.1-2.09,3-3.08a33.2,33.2,0,0,0,2.52-2.91,8.28,8.28,0,0,0,1.42-2.57,2.06,2.06,0,0,0-.29-2,4.34,4.34,0,0,0-2.51-1.21,13.85,13.85,0,0,0-4.22.7,17.53,17.53,0,0,0-4.21,2,17.21,17.21,0,0,0-3.58,3.06,11.29,11.29,0,0,0-2.28,4,16.43,16.43,0,0,0,.23,2.82c.15.93.31,1.85.49,2.75s.33,1.83.48,2.75a16.31,16.31,0,0,1,.24,2.78,7.91,7.91,0,0,1-.16,1.7c-.1.44-.53.66-1.28.66a2.53,2.53,0,0,1-.34,0c-.15,0-.23,0-.23-.08Zm3.29,3.24a34,34,0,0,0,.25,4,14.37,14.37,0,0,0,1,3.93c.51-.44,1.16-1,1.93-1.77s1.57-1.53,2.41-2.39,1.67-1.76,2.47-2.72S61,70,61.63,69.08a18,18,0,0,0,1.6-2.49,4.55,4.55,0,0,0,.59-1.93.83.83,0,0,0-.39-.82,1.87,1.87,0,0,0-.9-.21,12.57,12.57,0,0,0-3.16.52,18.27,18.27,0,0,0-3.7,1.43,12.34,12.34,0,0,0-3.06,2.24A4.1,4.1,0,0,0,51.33,70.78Z"/><path d="M88.69,93.19a6.51,6.51,0,0,1-1,1.67A18.58,18.58,0,0,1,85.82,97a17.39,17.39,0,0,1-2.24,1.86,3.74,3.74,0,0,1-2,.79,3.15,3.15,0,0,1-2.7-1.54,11.87,11.87,0,0,1-1.62-4,34,34,0,0,1-.77-5.37c-.14-2-.22-3.9-.26-5.78s0-3.6,0-5.14a30.22,30.22,0,0,0-.15-3.5.89.89,0,0,1,.54-.61,2.64,2.64,0,0,1,.79-.11,2.47,2.47,0,0,1,.75.11,1.06,1.06,0,0,1,.59.61c0,.38,0,1,0,1.9s.06,1.9.12,3,.14,2.28.21,3.5.13,2.37.18,3.47.1,2.08.16,3,.09,1.52.12,1.93c0,.24.08.63.13,1.18A16.34,16.34,0,0,0,79.88,94a9.44,9.44,0,0,0,.46,1.62c.19.48.44.74.75.77a2.46,2.46,0,0,0,1.56-.66A9.67,9.67,0,0,0,84.22,94a17.45,17.45,0,0,0,1.44-2.26c.45-.83.85-1.62,1.21-2.39a16.69,16.69,0,0,0,.82-2.08A10.31,10.31,0,0,0,88,85.94c.06-.58.13-1.41.2-2.49s.12-2.24.16-3.47.06-2.4.07-3.5,0-1.93,0-2.52l2.83.16q0,4.16-.06,7.53T91.21,88a44.29,44.29,0,0,0,.47,5.73,29.5,29.5,0,0,0,1.49,5.76,3.77,3.77,0,0,1-.62.43,1.59,1.59,0,0,1-.67.29,1.75,1.75,0,0,1-1.72-.85,5.86,5.86,0,0,1-.57-2c-.08-.77-.15-1.54-.2-2.31A2.81,2.81,0,0,0,88.69,93.19Z"/><path d="M96,87.33c.11-1.24.21-2.58.31-4s.27-2.9.49-4.34a35.47,35.47,0,0,1,.87-4.11,14.18,14.18,0,0,1,1.44-3.47A7.47,7.47,0,0,1,101.39,69a5.42,5.42,0,0,1,3.24-.85,2.24,2.24,0,0,1,2,1.08,7.15,7.15,0,0,1,1,2.62,19.46,19.46,0,0,1,.31,3.17c0,1.07,0,2,0,2.64a2,2,0,0,1-1.7-.9,6.86,6.86,0,0,1-1-2.08,14.58,14.58,0,0,1-.51-2.31l-.15-1.49-.18,0-.18,0a2,2,0,0,0-1.62,1,11.53,11.53,0,0,0-1.39,2.5,22.47,22.47,0,0,0-1.11,3.39c-.3,1.25-.56,2.47-.77,3.67s-.37,2.31-.49,3.32A21.29,21.29,0,0,0,98.61,87a23.82,23.82,0,0,0,0,2.93,10.67,10.67,0,0,0,.62,3,7.1,7.1,0,0,0,1.44,2.39,4.71,4.71,0,0,0,2.47,1.36,7.88,7.88,0,0,0,3.08-.51,5.36,5.36,0,0,0,1.93-1.39,6.76,6.76,0,0,0,1.16-2c.27-.72.54-1.47.79-2.24s.52-1.53.8-2.29a7.73,7.73,0,0,1,1.18-2.11,1.2,1.2,0,0,1,.9,0,.9.9,0,0,1,.39.49,2.5,2.5,0,0,1,.1.72v.56a12.27,12.27,0,0,1-.72,4.17,10.82,10.82,0,0,1-5.42,6.09,9.88,9.88,0,0,1-4.4,1,4.76,4.76,0,0,1-3.42-1.31,9.06,9.06,0,0,1-2.1-3.16,17.52,17.52,0,0,1-1.06-3.88A24.56,24.56,0,0,1,96,87.33Z"/><path d="M118.1,59.67c.71-.68,1.29-1,1.72-.82s.74.6,1,1.39a14.88,14.88,0,0,1,.36,3.08q0,1.91,0,4.29c0,1.6-.14,3.28-.28,5s-.26,3.5-.36,5.19-.17,3.32-.21,4.86a28.7,28.7,0,0,0,.16,4h.15a.25.25,0,0,0,.16,0A43.82,43.82,0,0,0,125.5,81c1.4-2,2.67-3.86,3.8-5.62s2.13-3.3,3-4.6a9.08,9.08,0,0,1,2.44-2.68,3.06,3.06,0,0,1,1.31.26c.36.17.54.57.54,1.18a3.1,3.1,0,0,1,0,.34c0,.15,0,.26,0,.33-.86,1.75-1.8,3.5-2.83,5.27a59.78,59.78,0,0,1-3.34,5.11,47.22,47.22,0,0,1-3.88,4.68,34.14,34.14,0,0,1-4.5,4s0,.09,0,.18a1.05,1.05,0,0,0,0,.18c0,.34.28.72.85,1.13A10.68,10.68,0,0,0,125,92c.87.38,1.85.76,2.93,1.13s2.14.71,3.18,1,2,.5,2.93.67a12.49,12.49,0,0,0,2.14.26c0,.13,0,.39,0,.77a6,6,0,0,1-.07,1.18,3.65,3.65,0,0,1-.36,1.1.87.87,0,0,1-.83.49h-.2a.21.21,0,0,1-.16,0l-14.7-5.91a29.27,29.27,0,0,1-.41,4.91,9.93,9.93,0,0,1-.85,2.77c-.32.6-.67.89-1,.85s-.68-.31-1-.82Z"/><g class="cls-1"><polygon class="cls-2" points="54.59 12.32 52.58 7.48 49.06 5.95 44.88 0 42.95 7.33 42.95 7.33 41.09 3.46 40.33 6.79 40.05 9.52 35.76 5.12 37.7 14.4 40.33 17.86 46.98 21.32 56.67 21.74 64.28 20.91 66.08 18.42 54.59 12.32"/><polygon class="cls-2" points="84.08 12.32 86.1 7.48 89.62 5.95 93.79 0 95.72 7.33 95.72 7.33 97.58 3.46 98.34 6.79 98.63 9.52 102.91 5.12 100.98 14.4 98.34 17.72 91.7 21.03 81.87 21.03 75.97 20.76 73.59 18.31 84.08 12.32"/></g><polygon class="cls-3" points="94.88 18.97 46.84 21.6 44.9 22.85 93.36 21.6 94.88 18.97"/><polygon class="cls-3" points="50.85 21.74 31.33 10.52 44.9 22.85 50.85 21.74"/><polygon class="cls-3" points="87.55 19.66 105.82 7.48 93.36 21.6 87.55 19.66"/><polygon class="cls-4" points="44.9 22.85 51.68 12.88 49.06 22.74 44.9 22.85"/><polygon class="cls-4" points="84.64 11.35 93.36 21.6 89 21.74 84.64 11.35"/><polygon class="cls-5" points="93.36 21.6 96.68 9 90.25 17.86 93.36 21.6"/><polygon class="cls-6" points="42.68 12.05 44.9 22.85 49.06 22.74 42.68 12.05"/><polygon class="cls-7" points="78.27 23.03 61.51 23.03 60.06 25.03 79.63 25.03 78.27 23.03"/><polygon class="cls-7" points="73.71 47.68 71.98 52.09 67.77 52.14 65.58 47.68 63.22 33.62 60.06 25.03 79.63 25.03 76.51 33.05 73.71 47.68"/><polygon class="cls-8" points="65.58 47.68 67.77 52.14 71.98 52.09 73.71 47.68 71.79 46.15 67.64 46.05 65.58 47.68"/><polygon class="cls-7" points="76.33 19.03 63.31 19.03 60.06 25.03 79.63 25.03 76.33 19.03"/><polygon class="cls-7" points="72.31 18.03 67.33 18.03 60.06 25.03 79.63 25.03 72.31 18.03"/><rect y="113.03" width="22" height="2"/><rect x="116" y="113.03" width="22" height="2"/></g></g></svg>